<svg xmlns="http://www.w3.org/2000/svg" viewBox="0 0 202 202"><defs><style>.cls-1,.cls-2,.cls-3,.cls-4,.cls-5,.cls-7{fill:none;}.cls-1,.cls-2,.cls-3,.cls-4{stroke:#000;}.cls-1,.cls-2,.cls-3{stroke-linecap:round;stroke-width:4px;}.cls-1,.cls-2,.cls-3,.cls-4,.cls-5{stroke-miterlimit:10;}.cls-2{stroke-dasharray:0 7.07;}.cls-3{stroke-dasharray:0 6.86;}.cls-5{stroke:#f7931e;stroke-width:3px;}.cls-6{font-size:12px;font-family:AgencyFB-Reg, Agency FB;}</style></defs><title>exp1</title><g id="Layer_2" data-name="Layer 2"><g id="Layer_1-2" data-name="Layer 1"><line class="cls-1" x1="121" y1="187" x2="121" y2="187"/><line class="cls-2" x1="121.01" y1="179.93" x2="121.13" y2="70.27"/><line class="cls-1" x1="121.13" y1="66.73" x2="121.13" y2="66.73"/><line class="cls-1" x1="45.13" y1="186.5" x2="45.13" y2="186.5"/><line class="cls-3" x1="52" y1="186.5" x2="117.2" y2="186.5"/><line class="cls-1" x1="120.63" y1="186.5" x2="120.63" y2="186.5"/><circle cx="121.13" cy="140.45" r="6.08" transform="translate(-60.31 101.98) rotate(-37.25)"/><circle class="cls-4" cx="121.13" cy="140.45" r="6.08" transform="translate(-60.31 101.98) rotate(-37.25)"/><circle cx="39.13" cy="186.45" r="6.08" transform="translate(-104.88 61.73) rotate(-37.25)"/><circle class="cls-4" cx="39.13" cy="186.45" r="6.08" transform="translate(-104.88 61.73) rotate(-37.25)"/><circle class="cls-5" cx="121.13" cy="36.81" r="29.34" transform="translate(6.98 91.56) rotate(-42.52)"/><text class="cls-6" transform="translate(117.14 32.18)">BEER<tspan x="-18.93" y="14.4">EXPLORER</tspan></text><rect class="cls-7" width="202" height="202"/></g></g></svg>