<svg xmlns="http://www.w3.org/2000/svg" viewBox="0 0 202 202"><defs><style>.cls-1,.cls-2,.cls-3,.cls-4,.cls-5,.cls-7{fill:none;}.cls-1,.cls-2,.cls-3,.cls-4{stroke:#000;}.cls-1,.cls-2,.cls-3{stroke-linecap:round;stroke-width:4px;}.cls-1,.cls-2,.cls-3,.cls-4,.cls-5{stroke-miterlimit:10;}.cls-2{stroke-dasharray:0 6.85;}.cls-3{stroke-dasharray:0 7.11;}.cls-5{stroke:#f7931e;stroke-width:3px;}.cls-6{font-size:11.3px;font-family:AgencyFB-Reg, Agency FB;}</style></defs><title>rec1</title><g id="Layer_2" data-name="Layer 2"><g id="Layer_1-2" data-name="Layer 1"><line class="cls-1" x1="70.63" y1="190.23" x2="70.63" y2="190.23"/><line class="cls-2" x1="70.64" y1="183.38" x2="70.75" y2="63.44"/><line class="cls-1" x1="70.75" y1="60.01" x2="70.75" y2="60.01"/><line class="cls-1" x1="70.75" y1="190.7" x2="70.75" y2="190.7"/><line class="cls-3" x1="77.86" y1="190.7" x2="138.3" y2="190.7"/><line class="cls-1" x1="141.85" y1="190.7" x2="141.85" y2="190.7"/><circle cx="70.75" cy="129.44" r="5.73" transform="translate(-63.92 69.24) rotate(-37.25)"/><circle class="cls-4" cx="70.75" cy="129.44" r="5.73" transform="translate(-63.92 69.24) rotate(-37.25)"/><circle cx="147.97" cy="190.65" r="5.73" transform="translate(-85.22 128.47) rotate(-37.25)"/><circle class="cls-4" cx="147.97" cy="190.65" r="5.73" transform="translate(-85.22 128.47) rotate(-37.25)"/><circle class="cls-5" cx="70.75" cy="31.84" r="27.63" transform="translate(-2.91 56.2) rotate(-42.52)"/><text class="cls-6" transform="translate(52.67 30.31)">BEER<tspan x="0" y="13.56">RECOMMENDATION SYSTEM</tspan></text><rect class="cls-7" width="202" height="202"/></g></g></svg>